inDegrees=no
num_controls=7
num_derivatives=13
num_iterations=114
num_multipliers=7
num_parameters=0
num_slacks=7
num_states=26
objective=0.444910
objective_accelerations=0.058190
objective_balance=0.003632
objective_effort=0.023461
objective_height=0.354129
objective_ligament=0.005499
solver_duration=1653.858180
status=Solve_Succeeded
success=true
DataType=double
version=3
OpenSimVersion=4.5
endheader
time	/jointset/ground_pelvis/pelvis_tilt/value	/jointset/ground_pelvis/pelvis_tx/value	/jointset/ground_pelvis/pelvis_ty/value	/jointset/hip_l/hip_flexion_l/value	/jointset/hip_l/hip_adduction_l/value	/jointset/hip_l/hip_rotation_l/value	/jointset/back/lumbar_extension/value	/jointset/patellofemoral_l/patellar_flexion_l/value	/jointset/knee_l/knee_flexion_l/value	/jointset/knee_l/knee_adduction_l/value	/jointset/knee_l/knee_rotation_l/value	/jointset/ankle_l/ankle_angle_l/value	/jointset/subtalar_l/subtalar_angle_l/value	/jointset/ground_pelvis/pelvis_tilt/speed	/jointset/ground_pelvis/pelvis_tx/speed	/jointset/ground_pelvis/pelvis_ty/speed	/jointset/hip_l/hip_flexion_l/speed	/jointset/hip_l/hip_adduction_l/speed	/jointset/hip_l/hip_rotation_l/speed	/jointset/back/lumbar_extension/speed	/jointset/patellofemoral_l/patellar_flexion_l/speed	/jointset/knee_l/knee_flexion_l/speed	/jointset/knee_l/knee_adduction_l/speed	/jointset/knee_l/knee_rotation_l/speed	/jointset/ankle_l/ankle_angle_l/speed	/jointset/subtalar_l/subtalar_angle_l/speed	/forceset/tau_hip_flexion_l	/forceset/tau_hip_adduction_l	/forceset/tau_hip_rotation_l	/forceset/tau_knee_flexion_l	/forceset/tau_ankle_angle_l	/forceset/tau_subtalar_angle_l	/forceset/tau_lumbar_extension	lambda_cid13_p0	lambda_cid13_p1	lambda_cid13_p2	lambda_cid13_p3	lambda_cid13_p4	lambda_cid13_p5	lambda_cid14_p0	/jointset/ground_pelvis/pelvis_tilt/accel	/jointset/ground_pelvis/pelvis_tx/accel	/jointset/ground_pelvis/pelvis_ty/accel	/jointset/hip_l/hip_flexion_l/accel	/jointset/hip_l/hip_adduction_l/accel	/jointset/hip_l/hip_rotation_l/accel	/jointset/back/lumbar_extension/accel	/jointset/patellofemoral_l/patellar_flexion_l/accel	/jointset/knee_l/knee_flexion_l/accel	/jointset/knee_l/knee_adduction_l/accel	/jointset/knee_l/knee_rotation_l/accel	/jointset/ankle_l/ankle_angle_l/accel	/jointset/subtalar_l/subtalar_angle_l/accel	gamma_cid13_p0	gamma_cid13_p1	gamma_cid13_p2	gamma_cid13_p3	gamma_cid13_p4	gamma_cid13_p5	gamma_cid14_p0
1.5	-0.3783980374959879	-0.02761819034933741	0.7595692395650535	1.123317108562204	-0.4350461790926436	-0.2126322546196707	-0.2261777096650791	0.8048739539620663	0.8048739539620241	-0.1310517284854652	-0.1471944558771766	0.1215913049333494	-0.02305035869534815	0.7031950110517817	0.2837501643949901	0.5419607656660772	-2.50589059838763	0.2082867212201824	-0.7235342037929231	0.3127947643742658	-2.015336226593235	-2.015336226593234	-0.1296017426523534	0.130961586163218	-0.3787638621655309	0.04656387897026333	-0.1797566452581803	0.02964125491747907	-0.008254528074984044	-0.2004734501554598	0.04430495403266773	0.04335476108236754	0.1718076640566501	-17.94224724341044	-18.61773862890127	5.979393584477927	-7.76724865940296	-519.7939536291103	-60.31529752877307	-24.98522600179194	0.6993993023590126	0.7220008015644025	-0.5242362969294481	-1.315847636796244	0.7205343368430395	-0.1823671278281919	1.484050724375025	-1.312763316438391	-1.312763316438345	0.1215458975645233	0.2288392759367567	-0.4988308506252423	0.5234256826132824	4.950265364903478e-07	5.247206808567304e-07	-2.758148511608354e-06	-9.2383148866573e-08	6.986055072560293e-07	-9.891132420846536e-08	4.579810485369109e-07
1.51	-0.3713312058013968	-0.02474487818785305	0.7649615521156016	1.098194209392773	-0.432928795575962	-0.219875228326742	-0.2229768226289947	0.7846573228691077	0.7846573228690614	-0.1323448369589357	-0.1458745439500802	0.1177789229664955	-0.02256032807355586	0.7100687398863432	0.2908738730507618	0.5363861955951836	-2.518339086550407	0.2151669882660722	-0.7249398209624024	0.3273519687804936	-2.027708116313663	-2.027708116313568	-0.1290298312375953	0.1330225250385112	-0.3836449771606427	0.05144370538178553	-0.1736808018783432	0.0287396179898136	-0.007908659954556281	-0.1974654527418907	0.04381119759075013	0.042794187073213	0.1668836808804319	-17.87552455091892	-18.40020008596628	5.960972413059333	-7.524940869567723	-515.7357769932477	-60.67343528902712	-25.90015774595533	0.6659980716790949	0.7018201600162833	-0.5912830218838813	-1.156791327539168	0.6683888572730831	-0.1011945169268087	1.436954189439432	-1.157199900975133	-1.157199900961317	0.02366272340898004	0.1946181419455619	-0.4725887612248116	0.470496301830083	4.35549050046134e-07	9.159415747365663e-07	-2.039549987334364e-06	4.610707919145872e-08	6.225287530147404e-07	1.505248111359865e-08	4.179111525395452e-07
1.52	-0.3641987091389247	-0.02180147608732443	0.7702946758334979	1.07295733695741	-0.4307432861950584	-0.2271285653065917	-0.2196312837707094	0.7643254132587209	0.764325413258668	-0.1336324965262717	-0.1445340432444984	0.1139197624622368	-0.02202145215136664	0.7163280046278773	0.2977681522038432	0.530122999135708	-2.528685251574014	0.2219118940644054	-0.7256068583486409	0.3417251288144318	-2.038391930079299	-2.038391930079113	-0.1285119614237352	0.1350793418586019	-0.3881195696465814	0.05633293904964356	-0.1676049584985035	0.02783798106215277	-0.007562791834190512	-0.1944574553283158	0.04331744114883461	0.04223361306406555	0.1619596977042141	-17.81204441630783	-18.18446769771988	5.945551990716251	-7.312863052613948	-511.7459771474907	-61.07918470345471	-26.81461457291309	0.5765064837535503	0.67611490102636	-0.6619615746458039	-0.8953830089621291	0.6934620873317244	-0.03465117118001403	1.44724184991713	-0.9751481254802724	-0.9751481254802892	0.1107375773849101	0.2280148648962719	-0.4175263487906516	0.5253071338804506	4.132706603689e-07	1.182804629466381e-06	-1.669993599837772e-06	1.274836364471341e-07	6.03435216020191e-07	1.048156842047521e-07	4.043186050555698e-07
1.53	-0.357006685037598	-0.01879035263288867	0.7755618132361798	1.047627369993316	-0.4284911528731419	-0.2343855077657689	-0.2161432466721823	0.7438950782145374	0.7438950782145399	-0.1349151322973354	-0.143173458435772	0.1100178534022893	-0.02143380844279399	0.7219634236143816	0.3044096273797699	0.5231952702767438	-2.536942100913443	0.2284882526300901	-0.7256887237426249	0.3558326767229336	-2.047380322034873	-2.047380322034785	-0.128001957345874	0.1370198968179468	-0.3921892156103307	0.06119732445894104	-0.1613755119894653	0.02718121286967659	-0.007239933768370624	-0.1917193849523499	0.04329372085151457	0.04109657373719297	0.1568777846534218	-17.62123446486574	-17.72758549885562	5.876737784581794	-7.055790964459296	-507.8651387469785	-60.98571574816287	-27.7286029219996	0.5400717148474594	0.651158981363173	-0.7244267946424813	-0.7358988051348929	0.6357717264001311	0.01936986304929803	1.385069136121824	-0.8165565506269533	-0.8165565506418048	0.02328584762553421	0.1740483339627882	-0.3906883774401292	0.4672053189088526	4.305163110065819e-07	1.317537480099299e-06	-1.671294482667162e-06	1.481769184753066e-07	6.448863473503017e-07	1.688657474255633e-07	4.188582403670712e-07
1.54	-0.3497617043246559	-0.01571421539559616	0.780756423699648	1.022225821954087	-0.4261740461685252	-0.2416404040615751	-0.2125156225196092	0.7233836848867915	0.7233836848868492	-0.1361922372226932	-0.1417940735729502	0.1060774469512498	-0.02079748066523743	0.7269193269508279	0.3107709087751924	0.5156176112929503	-2.543001466600937	0.2349065706043058	-0.7251976256743329	0.3696425396236396	-2.054603586791691	-2.054603586791703	-0.1274057922824599	0.1388393526776589	-0.3958190478650026	0.06606975284641665	-0.155146065480429	0.02652444467720091	-0.006917075702551199	-0.1889813145763836	0.04327000055419513	0.03995953441032133	0.1517958716026273	-17.43252520866398	-17.27475028405484	5.813612662122795	-6.836026643053266	-504.0282359647448	-60.94361582863553	-28.64282216289054	0.440603353741987	0.6200761449255079	-0.7919475996116521	-0.4558862785752563	0.6618539690379027	0.07994152127521743	1.387704848357977	-0.6221226857295731	-0.622122685729582	0.1279697744954996	0.2037950449697213	-0.3295636069751848	0.5269157295160782	4.326732560838451e-07	1.441835412213291e-06	-1.607985948596922e-06	1.738240609701304e-07	6.648120882213666e-07	2.26511842946849e-07	4.227566132992977e-07
1.55	-0.3424705579713485	-0.01257595419011451	0.7858720972802191	0.9967746272657322	-0.4237935936206763	-0.2488879135301738	-0.2087515973231038	0.7028089185287213	0.7028089185287811	-0.1374627848082892	-0.1403973314474227	0.1021029424413913	-0.02011242201554913	0.7311929095516413	0.3168249321156152	0.5074161956487054	-2.546865018577367	0.2411481269608279	-0.7241973167346516	0.3830953039076391	-2.060048100535479	-2.060048100535596	-0.1267064351339906	0.140498673827843	-0.3990082012354758	0.0709336640804064	-0.1489466452987919	0.02520063351516682	-0.006593745913535536	-0.1863289369082502	0.04291112674214483	0.03914439576538285	0.1467008702023083	-17.35975119116183	-16.94933011816602	5.779838440895082	-6.484497126614481	-500.3955215764034	-61.26493966760603	-29.5585435122506	0.4031886601504117	0.589649917415189	-0.8492434770434973	-0.295704427238711	0.5998929997864756	0.1264922156728108	1.313982852961327	-0.4604600254160069	-0.4604600254317031	0.04072465232458003	0.1451193659570246	-0.3024921586523793	0.4647860507310546	4.174453882328008e-07	1.554110503425042e-06	-1.470236129837983e-06	2.051789122634871e-07	6.599368357374455e-07	2.76779453944769e-07	4.143944013162733e-07
1.56	-0.3351401852026522	-0.009378835853465715	0.7909027557183052	0.9712959741036015	-0.4213518082030959	-0.2561221365823045	-0.2048550603568502	0.6821887381718704	0.6821887381719318	-0.1387263776289409	-0.1389843723672103	0.09809876620651435	-0.01937899280744278	0.7347646100284292	0.3225423350086204	0.4986145827959582	-2.54849316135627	0.2471731445504337	-0.7225403423806416	0.3961448935732538	-2.063686386547773	-2.063686386547994	-0.1260148392934436	0.1420827436145977	-0.4017533928687089	0.07574386453002135	-0.1427472251171561	0.02387682235313341	-0.006270416124521621	-0.1836765592401162	0.0425522529300952	0.03832925712044553	0.1416058688019876	-17.28899543345532	-16.62700866245332	5.750502430138609	-6.167405121336865	-496.8072089548402	-61.63270005914828	-30.47165358957847	0.3002269289369162	0.552752055441969	-0.9119870413121602	-0.008804439069725667	0.6185462156546521	0.2112746041409462	1.307069924681049	-0.2608771394308163	-0.2608771394308044	0.1264175129110387	0.1887447722838475	-0.2407712595271748	0.5161735726411192	3.881430749120412e-07	1.693685674323264e-06	-1.265468912313034e-06	2.547228447506314e-07	6.245783314297221e-07	3.167022700843494e-07	4.015652416834886e-07
1.57	-0.327777702776179	-0.006126271008126758	0.7958424606599694	0.9458124213693159	-0.4188508206853479	-0.2633374046484663	-0.2008300980422348	0.6615415451922784	0.6615415451922592	-0.1399823554654304	-0.1375565944867082	0.09406955980490704	-0.01859754775461169	0.737608108195079	0.3279084232118049	0.4892354153270449	-2.547838225483248	0.2529815527526381	-0.7204056258119147	0.4087665167015117	-2.065440991631994	-2.06544099163216	-0.1251853268698201	0.1434610202771985	-0.4040074731133397	0.08053352367808335	-0.1364922388188986	0.02268682322709976	-0.005992574710711115	-0.1812927059486729	0.0426821644133521	0.03705527319052195	0.1364549787106951	-17.08924294499988	-16.12010069839341	5.682717757577027	-5.857283766554154	-493.4500967319815	-61.61349924777566	-31.36685312739533	0.2578330642885845	0.5192792994457802	-0.9644283673350045	0.1595087850147004	0.5554041348444868	0.231047417798504	1.227550609661906	-0.0861440423387478	-0.08614404233053283	0.06082473351958401	0.1103754515538907	-0.2055997359523578	0.4583994577827583	3.412477047541376e-07	1.867385944829572e-06	-9.769299463305755e-07	3.2700312873001e-07	5.511157623422461e-07	3.436940926510056e-07	3.831523974885037e-07
1.58	-0.3203905010072867	-0.002821896861418129	0.8006856645734138	0.9203467912306664	-0.4162930658831089	-0.2705280301020294	-0.1966813510757839	0.6408861277919602	0.6408861277918605	-0.1412301168524001	-0.1361154325719166	0.0900202379350493	-0.01776859863592115	0.7397084785121096	0.3329041952825549	0.479314377151969	-2.544908642229166	0.2585266014484881	-0.71761181986079	0.420901823940319	-2.065331270693057	-2.065331270693168	-0.1243715493889328	0.1447595504720262	-0.4057764865188233	0.08524467770190602	-0.1302372525206406	0.02149682410106681	-0.00571473329691498	-0.1789088526572278	0.04281207589660959	0.03578128926059966	0.1313040886194025	-16.89812381081014	-15.61525249689701	5.619341679435021	-5.551610566461626	-490.2219555066152	-61.64872736128881	-32.23849790654072	0.151601359013072	0.4786888289550686	-1.0203611825447	0.4461250371422186	0.5658743143837751	0.3430924806205078	1.20980674679096	0.1119880652006461	0.1119880652006498	0.1232705243638323	0.1727954787292228	-0.143757891697728	0.5004725477932513	3.007318352179042e-07	1.99978144582912e-06	-7.432557352285282e-07	3.804183372338667e-07	4.948351987007242e-07	3.654969358266929e-07	3.653594934568808e-07
